<?xml version="1.0"?>
<svg version="1.1" id="圖層_1" xmlns="http://www.w3.org/2000/svg" x="0" y="0" viewBox="0 0 100 100" xml:space="preserve"><path d="M86.034 88.907H15.238a3.43 3.43 0 0 1-3.43-3.43V31.829a3.43 3.43 0 0 1 3.43-3.43h70.796a3.43 3.43 0 0 1 3.43 3.43v53.648a3.43 3.43 0 0 1-3.43 3.43z" fill="#333"/><path d="M43.654 23.5H16.708v60.507h26.947c3.824.012 6.125-1.108 6.982 1.47V27.42c-1.454-2.865-3.84-4.067-6.983-3.92z" fill="#666"/><path d="M57.617 23.5h26.947v60.507H57.617c-3.824.012-6.125-1.108-6.982 1.47V27.42c1.454-2.865 3.84-4.067 6.982-3.92z" fill="#666"/><path d="M43.654 21.541H16.708v60.507h26.947c3.824.012 6.125.851 6.982 3.43V25.46c-1.454-2.865-3.84-4.067-6.983-3.919z" fill="#b3b3b3"/><path d="M57.617 21.541h26.947v60.507H57.617c-3.824.012-6.125.851-6.982 3.43V25.46c1.454-2.865 3.84-4.067 6.982-3.919z" fill="#b3b3b3"/><path fill="#c33737" d="M30.528 73.556h-4.573V92.5l4.573-3.92 4.573 3.92V73.556z"/><path d="M43.654 19.581H16.708v60.507h26.947c3.824.012 6.125 1.831 6.982 4.409V23.5c-1.454-2.865-3.84-4.066-6.983-3.919z" fill="#e0e0e0"/><path d="M57.617 19.581h26.947v60.507H57.617c-3.824.012-6.125 1.831-6.982 4.409V23.5c1.454-2.865 3.84-4.066 6.982-3.919z" fill="#e0e0e0"/><g><path transform="rotate(-134.999 39.262 36.225)" fill="#eba523" d="M14.973 28.76H63.55v14.93H14.973z"/><path d="M27.366 13.772L22.014 8.42a3.14 3.14 0 0 0-4.442 0l-6.115 6.115a3.14 3.14 0 0 0 0 4.442l5.352 5.352 10.557-10.557z" fill="#f2f2f2"/><path fill="#f5e6c8" d="M58.311 60.153l4.879-4.878-1.475-7.154-5.279 5.279-5.278 5.278z"/><path fill="#333" d="M64.457 61.42l-1.267-6.145-4.879 4.878z"/><path fill="none" stroke="#333" stroke-width="1.941" d="M52.477 49.441L26.249 23.212"/></g><metadata xmlns:d="https://loading.io/stock/"><d:name>edit</d:name><d:tags>compose,write,design,draft,idea,create,author,editor,editorial,book,pen,draw,edit,books</d:tags><d:license>pro</d:license><d:slug>w7bsjs</d:slug></metadata></svg>